<mxfile host="app.diagrams.net" modified="2021-12-10T13:29:20.372Z" agent="5.0 (Windows NT 10.0; Win64; x64) AppleWebKit/537.36 (KHTML, like Gecko) Chrome/96.0.4664.93 Safari/537.36" etag="F0tGUYo8kqPACmV5V4Tc" version="15.9.4" type="github">
  <diagram id="WvXS4_I_WWrjFqloq2AS" name="Page-1">
    <mxGraphModel dx="1342" dy="582" grid="1" gridSize="10" guides="1" tooltips="1" connect="1" arrows="1" fold="1" page="1" pageScale="1" pageWidth="1169" pageHeight="827" math="0" shadow="0">
      <root>
        <mxCell id="0" />
        <mxCell id="1" parent="0" />
        <mxCell id="6pUouMOTaSm1BJBLfVju-2" value="Workflow System" style="rounded=1;whiteSpace=wrap;html=1;fontSize=14;arcSize=25;" vertex="1" parent="1">
          <mxGeometry x="200" y="320" width="82.5" height="80" as="geometry" />
        </mxCell>
        <mxCell id="6pUouMOTaSm1BJBLfVju-3" value="Copier" style="ellipse;whiteSpace=wrap;html=1;fontSize=14;" vertex="1" parent="1">
          <mxGeometry x="270" y="230" width="80" height="50" as="geometry" />
        </mxCell>
        <mxCell id="6pUouMOTaSm1BJBLfVju-4" value="" style="endArrow=none;html=1;rounded=0;fontSize=14;exitX=0.75;exitY=0;exitDx=0;exitDy=0;entryX=0;entryY=1;entryDx=0;entryDy=0;" edge="1" parent="1" source="6pUouMOTaSm1BJBLfVju-2" target="6pUouMOTaSm1BJBLfVju-3">
          <mxGeometry width="50" height="50" relative="1" as="geometry">
            <mxPoint x="310" y="360" as="sourcePoint" />
            <mxPoint x="360" y="310" as="targetPoint" />
          </mxGeometry>
        </mxCell>
        <mxCell id="6pUouMOTaSm1BJBLfVju-5" value="Filter" style="ellipse;whiteSpace=wrap;html=1;fontSize=14;" vertex="1" parent="1">
          <mxGeometry x="320" y="360" width="80" height="50" as="geometry" />
        </mxCell>
        <mxCell id="6pUouMOTaSm1BJBLfVju-6" value="Splitter" style="ellipse;whiteSpace=wrap;html=1;fontSize=14;" vertex="1" parent="1">
          <mxGeometry x="202.5" y="470" width="80" height="50" as="geometry" />
        </mxCell>
        <mxCell id="6pUouMOTaSm1BJBLfVju-7" value="Sharder" style="ellipse;whiteSpace=wrap;html=1;fontSize=14;" vertex="1" parent="1">
          <mxGeometry x="80" y="360" width="80" height="50" as="geometry" />
        </mxCell>
        <mxCell id="6pUouMOTaSm1BJBLfVju-9" value="Merger" style="ellipse;whiteSpace=wrap;html=1;fontSize=14;" vertex="1" parent="1">
          <mxGeometry x="130" y="230" width="80" height="50" as="geometry" />
        </mxCell>
        <mxCell id="6pUouMOTaSm1BJBLfVju-10" value="" style="endArrow=none;html=1;rounded=0;fontSize=14;exitX=0.25;exitY=0;exitDx=0;exitDy=0;entryX=1;entryY=1;entryDx=0;entryDy=0;" edge="1" parent="1" source="6pUouMOTaSm1BJBLfVju-2" target="6pUouMOTaSm1BJBLfVju-9">
          <mxGeometry width="50" height="50" relative="1" as="geometry">
            <mxPoint x="350" y="390" as="sourcePoint" />
            <mxPoint x="210" y="280" as="targetPoint" />
          </mxGeometry>
        </mxCell>
        <mxCell id="6pUouMOTaSm1BJBLfVju-11" value="" style="endArrow=none;html=1;rounded=0;fontSize=14;entryX=0;entryY=0.5;entryDx=0;entryDy=0;exitX=1;exitY=0.75;exitDx=0;exitDy=0;" edge="1" parent="1" source="6pUouMOTaSm1BJBLfVju-2" target="6pUouMOTaSm1BJBLfVju-5">
          <mxGeometry width="50" height="50" relative="1" as="geometry">
            <mxPoint x="350" y="390" as="sourcePoint" />
            <mxPoint x="400" y="340" as="targetPoint" />
          </mxGeometry>
        </mxCell>
        <mxCell id="6pUouMOTaSm1BJBLfVju-12" value="" style="endArrow=none;html=1;rounded=0;fontSize=14;entryX=1;entryY=0.5;entryDx=0;entryDy=0;exitX=0;exitY=0.75;exitDx=0;exitDy=0;" edge="1" parent="1" source="6pUouMOTaSm1BJBLfVju-2" target="6pUouMOTaSm1BJBLfVju-7">
          <mxGeometry width="50" height="50" relative="1" as="geometry">
            <mxPoint x="350" y="390" as="sourcePoint" />
            <mxPoint x="400" y="340" as="targetPoint" />
          </mxGeometry>
        </mxCell>
        <mxCell id="6pUouMOTaSm1BJBLfVju-14" value="" style="endArrow=none;html=1;rounded=0;fontSize=14;exitX=0.5;exitY=0;exitDx=0;exitDy=0;entryX=0.5;entryY=1;entryDx=0;entryDy=0;" edge="1" parent="1" source="6pUouMOTaSm1BJBLfVju-6" target="6pUouMOTaSm1BJBLfVju-2">
          <mxGeometry width="50" height="50" relative="1" as="geometry">
            <mxPoint x="280" y="440" as="sourcePoint" />
            <mxPoint x="330" y="390" as="targetPoint" />
          </mxGeometry>
        </mxCell>
        <mxCell id="6pUouMOTaSm1BJBLfVju-15" value="&lt;span&gt;&lt;font style=&quot;font-size: 18px&quot;&gt;Event Driven bath Processing&lt;/font&gt;&lt;/span&gt;" style="shape=process;whiteSpace=wrap;html=1;backgroundOutline=1;fontSize=14;fillColor=none;" vertex="1" parent="1">
          <mxGeometry x="390" y="80" width="400" height="60" as="geometry" />
        </mxCell>
        <mxCell id="6pUouMOTaSm1BJBLfVju-43" style="edgeStyle=orthogonalEdgeStyle;rounded=0;orthogonalLoop=1;jettySize=auto;html=1;exitX=0.75;exitY=0;exitDx=0;exitDy=0;fontSize=18;entryX=0;entryY=0.5;entryDx=0;entryDy=0;" edge="1" parent="1" source="6pUouMOTaSm1BJBLfVju-17" target="6pUouMOTaSm1BJBLfVju-32">
          <mxGeometry relative="1" as="geometry">
            <mxPoint x="880" y="290" as="targetPoint" />
            <Array as="points">
              <mxPoint x="810" y="340" />
              <mxPoint x="810" y="290" />
            </Array>
          </mxGeometry>
        </mxCell>
        <mxCell id="6pUouMOTaSm1BJBLfVju-44" style="edgeStyle=orthogonalEdgeStyle;rounded=0;orthogonalLoop=1;jettySize=auto;html=1;exitX=0.75;exitY=1;exitDx=0;exitDy=0;entryX=0;entryY=0.5;entryDx=0;entryDy=0;fontSize=18;" edge="1" parent="1" source="6pUouMOTaSm1BJBLfVju-17" target="6pUouMOTaSm1BJBLfVju-38">
          <mxGeometry relative="1" as="geometry" />
        </mxCell>
        <mxCell id="6pUouMOTaSm1BJBLfVju-45" style="edgeStyle=orthogonalEdgeStyle;rounded=0;orthogonalLoop=1;jettySize=auto;html=1;exitX=1;exitY=0.5;exitDx=0;exitDy=0;fontSize=18;entryX=0;entryY=0.54;entryDx=0;entryDy=0;entryPerimeter=0;" edge="1" parent="1" source="6pUouMOTaSm1BJBLfVju-17" target="6pUouMOTaSm1BJBLfVju-37">
          <mxGeometry relative="1" as="geometry">
            <mxPoint x="870" y="352" as="targetPoint" />
            <Array as="points">
              <mxPoint x="833" y="352" />
            </Array>
          </mxGeometry>
        </mxCell>
        <mxCell id="6pUouMOTaSm1BJBLfVju-17" value="Topic" style="rounded=1;whiteSpace=wrap;html=1;fontSize=14;arcSize=25;" vertex="1" parent="1">
          <mxGeometry x="750" y="330" width="82.5" height="40" as="geometry" />
        </mxCell>
        <mxCell id="6pUouMOTaSm1BJBLfVju-39" style="edgeStyle=orthogonalEdgeStyle;rounded=0;orthogonalLoop=1;jettySize=auto;html=1;exitX=1;exitY=0.5;exitDx=0;exitDy=0;entryX=0.25;entryY=0;entryDx=0;entryDy=0;fontSize=18;" edge="1" parent="1" source="6pUouMOTaSm1BJBLfVju-18" target="6pUouMOTaSm1BJBLfVju-17">
          <mxGeometry relative="1" as="geometry" />
        </mxCell>
        <mxCell id="6pUouMOTaSm1BJBLfVju-18" value="Publisher 1" style="ellipse;whiteSpace=wrap;html=1;fontSize=14;" vertex="1" parent="1">
          <mxGeometry x="610" y="265" width="80" height="50" as="geometry" />
        </mxCell>
        <mxCell id="6pUouMOTaSm1BJBLfVju-40" style="edgeStyle=orthogonalEdgeStyle;rounded=0;orthogonalLoop=1;jettySize=auto;html=1;exitX=1;exitY=0.5;exitDx=0;exitDy=0;entryX=0;entryY=0.5;entryDx=0;entryDy=0;fontSize=18;" edge="1" parent="1" source="6pUouMOTaSm1BJBLfVju-22" target="6pUouMOTaSm1BJBLfVju-17">
          <mxGeometry relative="1" as="geometry" />
        </mxCell>
        <mxCell id="6pUouMOTaSm1BJBLfVju-22" value="Publisher 2" style="ellipse;whiteSpace=wrap;html=1;fontSize=14;" vertex="1" parent="1">
          <mxGeometry x="610" y="325" width="80" height="50" as="geometry" />
        </mxCell>
        <mxCell id="6pUouMOTaSm1BJBLfVju-41" style="edgeStyle=orthogonalEdgeStyle;rounded=0;orthogonalLoop=1;jettySize=auto;html=1;exitX=1;exitY=0.5;exitDx=0;exitDy=0;entryX=0.25;entryY=1;entryDx=0;entryDy=0;fontSize=18;" edge="1" parent="1" source="6pUouMOTaSm1BJBLfVju-26" target="6pUouMOTaSm1BJBLfVju-17">
          <mxGeometry relative="1" as="geometry" />
        </mxCell>
        <mxCell id="6pUouMOTaSm1BJBLfVju-26" value="Publisher n" style="ellipse;whiteSpace=wrap;html=1;fontSize=14;" vertex="1" parent="1">
          <mxGeometry x="610" y="449" width="80" height="50" as="geometry" />
        </mxCell>
        <mxCell id="6pUouMOTaSm1BJBLfVju-27" value="" style="ellipse;whiteSpace=wrap;html=1;fontSize=18;fillColor=#000000;" vertex="1" parent="1">
          <mxGeometry x="640" y="385" width="20" height="20" as="geometry" />
        </mxCell>
        <mxCell id="6pUouMOTaSm1BJBLfVju-28" value="" style="ellipse;whiteSpace=wrap;html=1;fontSize=18;fillColor=#000000;" vertex="1" parent="1">
          <mxGeometry x="645" y="425" width="10" height="10" as="geometry" />
        </mxCell>
        <mxCell id="6pUouMOTaSm1BJBLfVju-32" value="Subscriber 1" style="ellipse;whiteSpace=wrap;html=1;fontSize=14;" vertex="1" parent="1">
          <mxGeometry x="890" y="265" width="100" height="50" as="geometry" />
        </mxCell>
        <mxCell id="6pUouMOTaSm1BJBLfVju-35" value="" style="ellipse;whiteSpace=wrap;html=1;fontSize=18;fillColor=#000000;" vertex="1" parent="1">
          <mxGeometry x="930" y="385" width="20" height="20" as="geometry" />
        </mxCell>
        <mxCell id="6pUouMOTaSm1BJBLfVju-36" value="" style="ellipse;whiteSpace=wrap;html=1;fontSize=18;fillColor=#000000;" vertex="1" parent="1">
          <mxGeometry x="935" y="425" width="10" height="10" as="geometry" />
        </mxCell>
        <mxCell id="6pUouMOTaSm1BJBLfVju-37" value="Subscriber 2" style="ellipse;whiteSpace=wrap;html=1;fontSize=14;" vertex="1" parent="1">
          <mxGeometry x="890" y="325" width="100" height="50" as="geometry" />
        </mxCell>
        <mxCell id="6pUouMOTaSm1BJBLfVju-38" value="Subscriber n" style="ellipse;whiteSpace=wrap;html=1;fontSize=14;" vertex="1" parent="1">
          <mxGeometry x="890" y="450" width="100" height="50" as="geometry" />
        </mxCell>
      </root>
    </mxGraphModel>
  </diagram>
</mxfile>
